{"title":"Ghosts.of.Mars.2001.DVDRIP-ZEKTORM","uid":4683961,"size":746061461,"categoryP":"video","categoryS":"movies","magnet":"?xt=urn:btih:a6deca90f23a01720ca609bd0ad346e3764c46d3&amp;dn=Ghosts.of.Mars.2001.DVDRIP-ZEKTORM&amp;tr=udp%3A%2F%2Ftracker.openbittorrent.com%3A80&amp;tr=udp%3A%2F%2Fopen.demonii.com%3A1337&amp;tr=udp%3A%2F%2Ftracker.coppersurfer.tk%3A6969&amp;tr=udp%3A%2F%2Fexodus.desync.com%3A6969","seeders":1,"leechers":2,"uploader":"blowley","files":4,"time":1233169181,"description":"Title                            : Ghosts of Mars\nYear                             : 2001\nGenre                            : Action | Horror | Sci-Fi\niMDB Rate                        : User Rating: 4.7/10   15,824 votes  \niMDB URL                         : http://www.imdb.com/title/tt0228333/\nAwards                           : 1 nomination\n\nComplete name                    : Ghosts.of.Mars.2001.DVDRIP-ZEKTORM.mp4\nFormat                           : MPEG-4\nFormat profile                   : Base Media\nCodec ID                         : isom\nFile size                        : 700 MiB\nDuration                         : 1h 34mn\nOverall bit rate                 : 1040 Kbps\nSubtitles                        : English, Spanish, Italian, Portuguese (Format: VobSub)\nSource                           : DVD PAL\nEncoded date                     : UTC 2009-01-26 20:30:21\n\nVideo\nFormat                           : AVC\nFormat/Info                      : Advanced Video Codec\nFormat profile                   : &lt;a class=&quot;__cf_email__&quot; href=&quot;/cdn-cgi/l/email-protection&quot; data-cfemail=&quot;94dcfdf3fcd4d8a0baa5&quot;&gt;[email&amp;#160;protected]&lt;/a&gt;&lt;script cf-hash='f9e31' type=&quot;text/javascript&quot;&gt;\n/* &lt;![CDATA[ */!function(){try{var t=&quot;currentScript&quot;in document?document.currentScript:function(){for(var t=document.getElementsByTagName(&quot;script&quot;),e=t.length;e--;)if(t[e].getAttribute(&quot;cf-hash&quot;))return t[e]}();if(t&amp;&amp;t.previousSibling){var e,r,n,i,c=t.previousSibling,a=c.getAttribute(&quot;data-cfemail&quot;);if(a){for(e=&quot;&quot;,r=parseInt(a.substr(0,2),16),n=2;a.length-n;n+=2)i=parseInt(a.substr(n,2),16)^r,e+=String.fromCharCode(i);e=document.createTextNode(e),c.parentNode.replaceChild(e,c)}}}catch(u){}}();/* ]]&gt; */&lt;/script&gt;\nFormat settings, CABAC           : Yes\nFormat settings, ReFrames        : 10 frames\nCodec ID                         : avc1\nCodec ID/Info                    : Advanced Video Coding\nDuration                         : 1h 34mn\nBit rate mode                    : Variable\nBit rate                         : 951 Kbps\nMaximum bit rate                 : 5521 Kbps\nWidth                            : 704 pixels\nHeight                           : 416 pixels\nDisplay aspect ratio             : 2.462\nFrame rate mode                  : Constant\nFrame rate                       : 25.000 fps\nResolution                       : 24 bits\nColorimetry                      : 4:2:0\nScan type                        : Progressive\nBits/(Pixel*Frame)               : 0.130\nStream size                      : 640 MiB (91%)\n\nAudio\nFormat                           : AAC\nFormat/Info                      : Advanced Audio Codec\nFormat version                   : Version 4\nFormat profile                   : LC\nFormat settings, SBR             : Yes\nFormat settings, PS              : No\nCodec ID                         : 40\nDuration                         : 1h 34mn\nBit rate mode                    : Variable\nBit rate                         : 85.7 Kbps\nMaximum bit rate                 : 106 Kbps\nChannel(s)                       : 2 channels\nChannel positions                : L R\nSampling rate                    : 48.0 KHz\nResolution                       : 16 bits\nStream size                      : 57.7 MiB (8%)\nTitle                            : English\nLanguage                         : English\n\nNotes                            : Convert to DVD with Nero","torrent":{"xt":"urn:btih:a6deca90f23a01720ca609bd0ad346e3764c46d3","amp;dn":"Ghosts.of.Mars.2001.DVDRIP-ZEKTORM","amp;tr":["udp%3A%2F%2Ftracker.openbittorrent.com%3A80","udp%3A%2F%2Fopen.demonii.com%3A1337","udp%3A%2F%2Ftracker.coppersurfer.tk%3A6969","udp%3A%2F%2Fexodus.desync.com%3A6969"],"infoHash":"a6deca90f23a01720ca609bd0ad346e3764c46d3","infoHashBuffer":{"type":"Buffer","data":[166,222,202,144,242,58,1,114,12,166,9,189,10,211,70,227,118,76,70,211]},"announce":[],"urlList":[]}}